<svg width="49" height="32" viewBox="0 0 49 32" fill="none" xmlns="http://www.w3.org/2000/svg">
<g clip-path="url(#clip0_1_2)">
<g clip-path="url(#clip1_1_2)">
<path d="M15.158 23.7043C18.2825 21.6313 19.8448 20.5948 20.4781 19.1719C20.6826 18.7124 20.8131 18.2338 20.8648 17.7538C21.0247 16.2676 20.1177 14.9006 18.3038 12.1666C16.4899 9.43256 15.583 8.06555 14.1515 7.63516C13.6892 7.49616 13.1975 7.43037 12.6946 7.44019C11.1375 7.47055 9.57518 8.50708 6.45062 10.5801C3.32603 12.6531 1.76373 13.6896 1.13045 15.1125C0.925937 15.572 0.795457 16.0506 0.743806 16.5306C0.583891 18.0168 1.49084 19.3838 3.30474 22.1178C5.11862 24.8518 6.02559 26.2188 7.45708 26.6492C7.91941 26.7882 8.41105 26.854 8.91394 26.8442C10.4711 26.8138 12.0334 25.7773 15.158 23.7043Z" fill="#93A1D3" stroke="#93A1D3" stroke-width="1.5" stroke-linecap="round" stroke-linejoin="round"/>
<path d="M9.48726 16.9659L11.9871 15.3074Z" fill="black"/>
<path d="M9.48726 16.9659L11.9871 15.3074" stroke="black" stroke-width="1.5" stroke-linecap="round" stroke-linejoin="round"/>
<path d="M4.21917 16.2608L5.75263 16.3535C6.3973 16.3925 6.71963 16.412 6.85321 16.6134C6.98679 16.8147 6.87945 17.1193 6.66478 17.7284L6.15413 19.1773" stroke="black" stroke-width="1.5" stroke-linecap="round" stroke-linejoin="round"/>
</g>
<g clip-path="url(#clip2_1_2)">
<path d="M40.9021 2.09452L40.7319 2.56467C39.7693 5.22422 39.288 6.55399 38.1627 7.08118C37.0374 7.60836 35.7076 7.12705 33.0481 6.16443L32.5779 5.99426M31.5439 7.38207L30.4061 10.5256C29.1226 14.0717 28.4808 15.8447 29.1837 17.3451C29.8866 18.8455 31.6597 19.4872 35.2057 20.7707C38.7518 22.0543 40.5249 22.696 42.0253 21.9931C43.5256 21.2902 44.1674 19.5172 45.4509 15.9711L46.9975 11.6982C48.1019 8.64687 48.6541 7.12123 48.195 5.78628C48.1022 5.5166 47.9809 5.25765 47.833 5.01377C47.1012 3.80654 45.5756 3.25433 42.5243 2.14993C41.8608 1.90978 41.5292 1.78974 41.1866 1.78697C41.1153 1.78639 41.0442 1.78966 40.9732 1.79665C40.6323 1.83052 40.3129 1.98015 39.674 2.27947L33.6082 5.12117C32.8678 5.46801 32.4977 5.6414 32.2294 5.93522C31.9612 6.22898 31.8221 6.61337 31.5439 7.38207Z" fill="#6875D3"/>
<path d="M40.9021 2.09452L40.7319 2.56467C39.7693 5.22422 39.288 6.55399 38.1627 7.08118C37.0374 7.60836 35.7076 7.12705 33.0481 6.16443L32.5779 5.99426M31.5439 7.38207L30.4061 10.5256C29.1226 14.0717 28.4808 15.8447 29.1837 17.3451C29.8866 18.8455 31.6597 19.4872 35.2057 20.7707C38.7518 22.0543 40.5249 22.696 42.0253 21.9931C43.5256 21.2902 44.1674 19.5172 45.4509 15.9711L46.9975 11.6982C48.1019 8.64687 48.6541 7.12123 48.195 5.78628C48.1022 5.5166 47.9809 5.25765 47.833 5.01377C47.1012 3.80654 45.5756 3.25433 42.5243 2.14993C41.8608 1.90978 41.5292 1.78974 41.1866 1.78697C41.1153 1.78639 41.0442 1.78966 40.9732 1.79665C40.6323 1.83052 40.3129 1.98015 39.674 2.27947L33.6082 5.12117C32.8678 5.46801 32.4977 5.6414 32.2294 5.93522C31.9612 6.22898 31.8221 6.61337 31.5439 7.38207Z" stroke="#6875D3" stroke-linecap="round" stroke-linejoin="round"/>
<path d="M42.6111 12.0465L38.8499 10.6852Z" fill="black"/>
<path d="M42.6111 12.0465L38.8499 10.6852" stroke="black" stroke-width="1.5" stroke-linecap="round" stroke-linejoin="round"/>
<path d="M41.7349 15.5278L34.2124 12.8051" stroke="black" stroke-width="1.5" stroke-linecap="round" stroke-linejoin="round"/>
</g>
<path d="M27.8333 16.5294H24.1667C20.7097 16.5294 18.9812 16.5294 17.9073 17.4569C16.8333 18.3844 16.8333 19.8772 16.8333 22.8627V24.4461C16.8333 27.4316 16.8333 28.9244 17.9073 29.8519C18.9812 30.7794 20.7097 30.7794 24.1667 30.7794H27.8333C31.2903 30.7794 33.0188 30.7794 34.0927 29.8519C35.1667 28.9244 35.1667 27.4316 35.1667 24.4461V22.8627C35.1667 19.8772 35.1667 18.3844 34.0927 17.4569C33.0188 16.5294 31.2903 16.5294 27.8333 16.5294Z" fill="#373FD3" stroke="#373FD3" stroke-linecap="round" stroke-linejoin="round"/>
<path d="M22.7917 22.0711C23.5511 22.0711 24.1667 21.5394 24.1667 20.8836C24.1667 20.2277 23.5511 19.6961 22.7917 19.6961C22.0323 19.6961 21.4167 20.2277 21.4167 20.8836C21.4167 21.5394 22.0323 22.0711 22.7917 22.0711Z" stroke="black" stroke-width="1.5" stroke-linecap="round" stroke-linejoin="round"/>
<path d="M34.7083 27.6127L29.9857 23.1633C29.7824 22.9717 29.4953 22.8627 29.1946 22.8627C28.9099 22.8627 28.6369 22.9604 28.4357 23.1342L24.1667 26.8211L22.186 25.1105C21.9869 24.9385 21.7168 24.8419 21.4352 24.8419C21.1319 24.8419 20.843 24.9539 20.6415 25.1497L17.2917 28.4044" stroke="black" stroke-width="1.5" stroke-linecap="round" stroke-linejoin="round"/>
</g>
<defs>
<clipPath id="clip0_1_2">
<rect width="49" height="32" fill="white"/>
</clipPath>
<clipPath id="clip1_1_2">
<rect width="24" height="21" fill="white" transform="translate(-5 15.0269) rotate(-33.5625)"/>
</clipPath>
<clipPath id="clip2_1_2">
<rect width="24" height="24" fill="white" transform="translate(45.8087 26.7355) rotate(-160.102)"/>
</clipPath>
</defs>
</svg>
